<?xml version="1.0" standalone="no"?>
<!DOCTYPE svg PUBLIC "-//W3C//DTD SVG 20010904//EN"
 "http://www.w3.org/TR/2001/REC-SVG-20010904/DTD/svg10.dtd">
<svg version="1.0" xmlns="http://www.w3.org/2000/svg"
 width="1009.000000pt" height="1009.000000pt" viewBox="0 0 1009.000000 1009.000000"
 preserveAspectRatio="xMidYMid meet">
<metadata>
Created by potrace 1.11, written by Peter Selinger 2001-2013
</metadata>
<g transform="translate(0.000000,1009.000000) scale(0.100000,-0.100000)"
fill="#000000" stroke="none">
<path d="M2437 7083 c-4 -15 -18 -71 -32 -123 -14 -52 -41 -153 -60 -225 -19
-71 -42 -155 -50 -185 -9 -30 -18 -66 -21 -80 -6 -28 -22 -83 -35 -118 -18
-46 -10 -67 46 -122 59 -58 70 -58 79 0 3 19 14 62 25 95 11 33 21 69 21 81 0
11 6 28 13 38 22 30 45 9 66 -63 21 -73 99 -365 106 -395 5 -20 47 -178 92
-341 14 -49 26 -97 28 -105 2 -8 9 -35 16 -60 7 -25 14 -52 15 -60 1 -8 12
-46 23 -85 11 -38 39 -140 62 -225 22 -85 46 -158 51 -161 12 -7 88 -23 101
-20 4 0 7 -3 7 -7 0 -4 9 -8 20 -9 23 -2 25 13 9 72 -6 22 -11 41 -11 42 1 2
-5 21 -13 43 -8 22 -12 40 -10 40 2 0 -3 19 -11 42 -8 23 -21 69 -29 102 -8
34 -23 93 -34 131 -45 161 -123 453 -131 485 -4 19 -15 60 -23 90 -19 67 -119
441 -122 455 -1 5 -5 17 -8 25 -3 8 -10 35 -16 60 -24 96 -78 299 -102 385
-11 39 -22 78 -25 88 -2 9 -6 25 -9 35 -2 9 -9 34 -14 55 -12 50 -17 54 -24
20z"/>
<path d="M7631 7070 c-26 -104 -46 -177 -111 -415 -17 -60 -32 -119 -34 -130
-3 -11 -12 -47 -21 -80 -9 -33 -28 -103 -42 -155 -25 -98 -26 -103 -62 -232
-42 -156 -63 -233 -67 -252 -2 -10 -8 -33 -13 -50 -6 -17 -22 -76 -37 -131
-14 -55 -38 -147 -54 -205 -15 -58 -42 -157 -58 -220 -17 -63 -35 -127 -41
-142 -6 -16 -9 -28 -6 -28 2 0 -1 -13 -6 -30 -5 -16 -13 -44 -18 -60 l-10 -31
37 7 c20 4 45 11 55 16 10 5 30 10 44 11 20 2 29 11 39 37 7 19 13 43 13 52 1
9 6 29 13 45 6 15 13 39 15 53 2 14 8 39 14 57 5 17 12 44 15 59 3 15 7 31 10
36 3 4 7 16 9 25 2 10 13 54 25 98 12 44 23 87 25 95 2 8 11 42 21 75 9 33 20
76 25 95 11 46 74 281 81 300 7 19 27 96 34 130 3 14 9 39 14 55 5 17 16 57
25 90 32 123 60 205 72 209 22 9 41 -31 71 -147 17 -65 33 -121 36 -125 9 -8
126 109 120 120 -3 4 -7 16 -9 25 -2 10 -17 68 -34 129 -16 61 -32 122 -35
135 -3 13 -10 40 -16 59 -6 19 -13 42 -15 51 -2 8 -10 39 -19 67 -8 29 -12 52
-9 52 3 0 1 6 -5 13 -6 6 -12 28 -14 47 -1 19 -5 37 -8 40 -3 3 -14 39 -24 80
-30 119 -32 122 -45 70z"/>
<path d="M773 6216 c-392 -393 -713 -720 -713 -727 0 -7 3 -10 6 -6 3 3 17 2
30 -3 14 -6 35 -12 47 -14 24 -5 43 -10 100 -26 20 -5 54 -15 75 -20 20 -6 44
-12 52 -14 8 -2 42 -12 75 -21 33 -9 69 -18 80 -20 11 -2 21 -4 23 -5 1 -2 7
-4 12 -5 6 -1 11 -3 13 -5 1 -1 11 -3 22 -5 32 -6 285 -74 294 -79 4 -3 21 -8
37 -11 47 -10 48 -10 62 -18 6 -5 12 -6 12 -3 0 3 18 -1 40 -9 22 -8 40 -12
40 -10 0 3 11 0 25 -5 14 -5 36 -12 48 -14 12 -3 47 -12 77 -21 30 -9 66 -18
80 -21 14 -3 40 -9 58 -15 18 -6 39 -12 45 -13 28 -6 73 -18 87 -23 20 -8 28
-10 69 -18 19 -3 38 -8 43 -11 4 -3 16 -7 25 -9 10 -2 55 -14 101 -26 46 -11
85 -19 87 -17 1 1 5 19 8 39 2 19 10 45 16 57 10 20 3 58 -10 52 -2 -1 -24 3
-49 10 -25 7 -56 14 -69 17 -13 2 -39 10 -57 18 -18 7 -34 11 -37 9 -2 -2 -23
2 -45 10 -23 9 -42 13 -42 9 0 -3 -7 0 -15 7 -8 7 -15 10 -15 7 0 -3 -30 3
-67 14 -38 11 -76 22 -87 24 -10 3 -44 12 -75 21 -31 9 -63 18 -71 19 -17 4
-148 39 -320 85 -63 17 -122 33 -130 35 -8 2 -76 20 -150 40 -74 21 -139 38
-145 39 -72 17 -95 28 -95 46 0 23 1085 1114 1118 1125 18 5 113 -87 581 -555
308 -308 562 -557 564 -553 3 5 -1 26 -9 48 -8 22 -16 51 -18 65 -2 14 -6 32
-9 40 -3 8 -11 37 -19 64 -12 46 -45 82 -546 583 -293 293 -536 533 -540 533
-4 -1 -328 -322 -719 -714z"/>
<path d="M8053 6396 c-415 -416 -533 -539 -533 -558 0 -14 -3 -28 -7 -32 -8
-7 -27 -78 -39 -141 -3 -16 -10 -38 -15 -47 -5 -9 -9 -22 -9 -28 0 -5 254 244
565 555 311 311 572 565 581 565 20 0 1137 -1117 1132 -1132 -2 -6 -11 -15
-19 -19 -16 -9 -269 -78 -314 -86 -16 -3 -38 -9 -47 -14 -9 -5 -27 -9 -41 -9
-13 0 -27 -3 -31 -7 -3 -4 -17 -8 -29 -10 -12 -2 -29 -6 -37 -10 -8 -3 -24 -8
-35 -10 -27 -6 -33 -8 -85 -22 -60 -17 -79 -22 -115 -28 -16 -3 -35 -9 -41
-14 -11 -9 -18 -11 -92 -24 -23 -4 -45 -12 -48 -16 -3 -5 -9 -7 -14 -4 -5 3
-18 2 -27 -4 -10 -5 -32 -11 -50 -14 -17 -3 -37 -8 -43 -12 -6 -4 -21 -8 -33
-10 -27 -5 -126 -31 -147 -39 -16 -6 -68 -17 -87 -18 -7 -1 -13 -4 -13 -7 0
-4 -11 -8 -26 -9 -14 -1 -34 -6 -44 -12 -10 -5 -32 -10 -49 -10 -27 0 -30 -3
-27 -22 3 -13 5 -23 6 -23 2 0 6 -17 18 -65 6 -28 13 -35 32 -35 14 0 31 4 38
9 6 4 12 6 12 3 0 -4 18 0 40 8 22 8 40 12 40 8 0 -3 6 0 13 6 8 6 17 8 20 4
4 -3 7 -2 7 3 0 6 10 11 23 11 24 2 44 6 67 17 9 3 29 8 45 9 17 1 32 5 35 9
3 3 19 8 35 11 17 3 51 13 78 21 26 8 47 13 47 10 0 -3 10 1 23 8 12 6 31 12
42 13 11 0 25 3 30 7 6 3 28 10 50 14 49 10 47 9 65 17 8 4 26 8 40 10 14 2
32 6 40 9 49 17 118 36 230 64 8 2 33 8 55 14 22 6 47 13 55 15 8 2 15 4 15 5
0 1 14 4 30 6 17 2 39 9 50 14 11 5 56 18 100 29 126 31 239 61 255 68 8 3 28
7 43 9 16 2 37 8 47 14 10 5 28 10 39 10 11 0 23 4 26 10 6 9 -1418 1440
-1433 1440 -4 -1 -247 -241 -539 -534z"/>
<path d="M2133 5968 c2 -7 0 -26 -5 -43 -5 -16 -20 -70 -33 -120 -23 -88 -34
-129 -76 -285 -12 -41 -29 -111 -40 -155 -11 -44 -23 -87 -26 -95 -4 -8 -7
-19 -8 -25 -2 -15 -25 -95 -36 -130 -6 -16 -13 -46 -16 -65 -3 -19 -10 -41
-15 -48 -6 -7 -8 -15 -5 -18 3 -3 -3 -30 -13 -60 -11 -30 -17 -54 -15 -54 3 0
0 -12 -6 -27 -5 -14 -26 -88 -45 -162 -39 -148 -40 -152 -78 -291 -14 -52 -29
-106 -32 -120 -2 -14 -9 -38 -14 -55 -5 -16 -13 -48 -19 -70 -17 -64 -42 -157
-54 -200 -7 -22 -12 -42 -13 -45 0 -3 -6 -24 -13 -48 -6 -23 -9 -46 -6 -51 3
-5 0 -11 -5 -13 -6 -2 -13 -17 -16 -33 -2 -17 -10 -46 -16 -65 -7 -19 -11 -38
-10 -42 1 -4 -3 -20 -9 -35 -6 -15 -13 -39 -15 -53 -3 -14 -9 -36 -14 -50 -5
-14 -11 -36 -13 -50 -2 -14 -7 -32 -10 -40 -6 -14 -38 -133 -57 -208 l-8 -33
41 6 c23 4 48 10 57 15 8 4 32 11 53 14 21 3 47 11 58 16 10 6 19 8 19 6 0 -3
12 -1 28 5 15 6 38 13 52 15 14 3 62 16 107 30 44 13 85 24 90 23 4 -1 21 3
36 9 16 7 33 10 38 6 5 -3 9 -1 9 3 0 5 12 10 28 11 15 1 29 7 30 12 2 6 7 8
11 5 5 -2 23 0 42 6 19 6 47 13 62 15 16 2 33 7 38 10 6 3 45 15 87 26 42 10
102 26 132 34 109 30 120 32 120 25 0 -3 4 0 9 7 4 7 25 15 45 18 52 6 60 8
66 15 3 4 21 9 40 12 19 3 51 11 70 17 19 6 43 13 53 15 10 2 27 7 37 10 10 3
27 8 37 10 66 16 91 23 111 34 16 9 22 9 22 0 0 -8 4 -8 13 -2 6 6 37 16 67
24 30 7 56 13 57 14 5 2 -30 121 -38 131 -7 9 -32 6 -97 -13 -94 -26 -111 -30
-157 -39 -16 -3 -32 -10 -36 -16 -4 -6 -11 -8 -17 -4 -6 3 -23 1 -39 -5 -15
-6 -35 -12 -44 -14 -8 -2 -39 -10 -67 -19 -29 -8 -52 -13 -52 -10 0 3 -8 0
-19 -5 -10 -6 -33 -13 -52 -16 -33 -6 -125 -31 -223 -60 -26 -8 -55 -15 -62
-15 -8 0 -22 -4 -32 -9 -15 -8 -149 -44 -211 -57 -14 -3 -28 -7 -33 -10 -5 -3
-18 -7 -31 -10 -54 -10 -68 -13 -75 -18 -5 -3 -19 -7 -33 -10 -13 -3 -66 -16
-117 -29 l-93 -25 -11 24 c-9 18 -8 28 0 36 7 7 12 21 12 32 0 12 9 50 20 86
11 36 23 79 26 95 7 37 10 46 17 65 3 8 10 35 16 60 7 25 23 88 37 140 14 52
27 104 30 115 2 11 8 31 13 45 9 24 29 99 35 130 2 8 6 22 9 30 5 15 20 71 37
140 5 19 16 62 24 95 9 33 18 67 20 75 2 8 14 49 26 90 11 41 22 82 24 90 1 8
5 22 8 30 6 16 41 147 44 166 1 6 10 38 19 70 10 33 21 75 26 94 4 19 12 51
17 70 35 125 44 158 48 180 3 14 12 48 20 75 17 54 41 144 50 185 8 40 36 134
42 145 4 5 7 17 7 25 0 8 4 32 9 54 8 37 7 39 -48 92 -54 52 -82 68 -73 42z"/>
<path d="M7887 5923 c-31 -31 -57 -62 -57 -67 0 -6 21 -85 46 -176 25 -91 47
-172 49 -180 2 -8 9 -37 16 -65 6 -27 14 -57 17 -65 3 -8 6 -19 7 -25 8 -33
57 -213 62 -225 3 -8 5 -19 4 -24 -1 -6 2 -19 8 -30 8 -17 18 -57 37 -138 1
-5 2 -9 4 -10 1 -2 3 -10 5 -18 1 -8 8 -35 15 -60 7 -25 13 -49 15 -55 1 -5 5
-17 8 -25 3 -8 11 -40 18 -70 16 -68 15 -62 22 -80 5 -14 12 -39 54 -205 20
-81 19 -78 26 -95 7 -20 32 -122 32 -135 0 -5 3 -12 7 -15 4 -3 9 -17 12 -30
2 -14 16 -68 29 -120 14 -52 40 -149 57 -215 17 -66 43 -160 57 -210 50 -174
49 -204 -5 -184 -15 6 -29 10 -32 10 -3 0 -23 4 -45 10 -22 6 -51 13 -65 15
-14 3 -32 7 -40 10 -13 5 -78 23 -140 40 -8 2 -33 8 -55 15 -22 6 -52 13 -67
16 -16 3 -28 10 -28 15 0 5 -5 6 -10 3 -6 -4 -19 -3 -28 1 -9 4 -24 8 -32 9
-8 1 -51 12 -95 25 -130 36 -149 41 -179 46 -16 3 -41 10 -55 16 -14 5 -39 12
-56 15 -16 3 -36 10 -42 15 -7 6 -13 8 -13 5 0 -3 -33 3 -72 15 -74 20 -94 25
-137 34 -13 3 -32 9 -43 15 -10 5 -18 7 -18 5 0 -3 -18 1 -39 9 -22 7 -52 16
-68 18 -15 3 -41 10 -56 16 -16 6 -32 11 -37 11 -10 0 -20 -25 -27 -65 -3 -16
-9 -38 -15 -49 -5 -10 -6 -22 -1 -26 7 -7 167 -52 233 -66 14 -3 44 -12 68
-20 23 -7 49 -14 57 -14 7 0 26 -5 42 -11 15 -7 35 -13 43 -14 28 -4 205 -50
210 -55 3 -3 19 -7 35 -9 17 -1 36 -8 43 -13 7 -6 15 -8 19 -5 3 3 21 0 40 -8
19 -8 37 -14 41 -14 4 1 9 0 12 -1 6 -2 11 -3 100 -26 36 -8 72 -19 80 -22 8
-3 20 -7 25 -8 42 -7 76 -18 81 -25 3 -5 10 -7 15 -3 6 3 22 1 37 -5 15 -6 39
-12 54 -15 14 -2 35 -9 46 -15 11 -6 22 -8 25 -4 4 3 13 0 21 -6 8 -7 20 -10
26 -6 5 3 10 1 10 -5 0 -6 4 -9 9 -6 5 3 28 -1 51 -9 24 -8 55 -18 69 -21 37
-7 56 -12 56 -14 0 -1 7 -3 15 -5 8 -2 26 -6 40 -9 14 -3 50 -12 80 -20 73
-21 83 -20 75 3 -3 11 -8 28 -10 38 -10 41 -67 249 -72 263 -3 8 -7 22 -8 30
-2 8 -17 67 -34 130 -18 63 -34 124 -36 135 -3 11 -19 70 -36 130 -17 61 -32
117 -33 125 -1 8 -5 22 -9 30 -3 8 -8 26 -11 40 -2 14 -9 37 -15 53 -6 15 -8
27 -5 27 2 0 0 8 -5 18 -5 9 -11 31 -14 49 -3 17 -8 37 -12 43 -4 6 -8 21 -10
33 -2 12 -17 74 -34 137 -17 63 -34 126 -36 140 -3 14 -9 36 -14 50 -9 25 -29
101 -35 130 -2 8 -6 22 -9 30 -3 8 -9 29 -13 45 -4 17 -8 35 -10 40 -2 6 -6
23 -9 39 -3 16 -9 34 -13 40 -3 6 -7 17 -8 26 -1 8 -11 51 -23 95 -36 129 -51
188 -55 204 -2 9 -6 23 -9 31 -9 25 -31 124 -29 133 1 4 -3 7 -10 7 -6 0 -9 3
-5 6 3 3 -1 29 -10 57 -8 28 -17 59 -19 70 -2 11 -10 43 -18 71 -20 67 -55
202 -60 224 -1 9 -7 27 -12 40 -9 22 -12 21 -67 -35z"/>
<path d="M6483 4825 c-359 -359 -653 -655 -653 -658 0 -5 37 -18 62 -22 9 -1
25 -6 35 -10 56 -24 39 -39 602 524 485 486 541 545 551 583 6 24 15 59 21 78
6 19 11 42 13 50 1 8 8 35 15 59 7 23 11 44 9 46 -2 2 -297 -291 -655 -650z"/>
<path d="M2956 5448 c6 -20 16 -57 28 -109 2 -8 11 -38 19 -66 9 -28 13 -54
10 -56 -2 -3 241 -251 542 -552 593 -593 549 -557 628 -526 16 6 32 9 36 6 5
-2 16 1 25 8 16 12 -53 84 -634 665 -359 359 -654 652 -657 652 -2 0 -1 -10 3
-22z"/>
<path d="M2105 5037 c-18 -62 -19 -96 -2 -99 29 -3 83 -16 117 -29 14 -4 36
-10 50 -13 14 -2 37 -9 53 -15 15 -6 27 -9 27 -6 0 2 18 -2 40 -10 22 -8 44
-15 48 -15 4 0 25 -6 47 -12 22 -6 47 -12 55 -13 8 -1 31 -7 51 -13 20 -7 46
-15 58 -17 11 -3 31 -7 44 -10 12 -3 33 -9 47 -14 25 -10 175 -49 217 -57 12
-2 35 -9 50 -16 16 -6 44 -13 63 -15 19 -2 38 -9 42 -16 4 -7 8 -9 8 -5 0 3
51 -7 113 -24 61 -17 123 -33 137 -35 14 -2 34 -8 45 -12 20 -8 98 -29 145
-39 34 -7 -175 203 -210 211 -20 4 -93 23 -200 51 -8 2 -51 14 -95 26 -44 12
-87 23 -95 25 -8 2 -15 4 -15 5 0 1 -7 3 -15 5 -8 1 -42 10 -75 20 -33 9 -70
17 -82 18 -13 1 -23 4 -23 7 0 4 -6 7 -12 7 -7 1 -49 11 -93 23 -44 12 -87 23
-95 25 -8 2 -16 4 -17 5 -3 3 -7 4 -53 14 -19 4 -46 11 -60 17 -14 5 -36 11
-50 13 -14 3 -25 5 -25 6 0 1 -11 3 -25 6 -14 2 -32 7 -40 11 -8 3 -19 7 -25
8 -5 2 -30 8 -55 15 -77 22 -79 22 -95 -33z"/>
<path d="M7935 5081 c-11 -5 -24 -6 -28 -4 -4 3 -14 -1 -22 -7 -8 -6 -29 -14
-47 -16 -18 -3 -44 -9 -58 -14 -23 -9 -138 -40 -220 -60 -19 -5 -53 -14 -75
-20 -60 -16 -73 -20 -92 -24 -52 -13 -131 -35 -154 -44 -15 -6 -29 -8 -32 -5
-3 3 -12 1 -19 -3 -7 -5 -16 -9 -20 -10 -5 -1 -9 -2 -10 -4 -2 -1 -16 -4 -33
-6 -16 -3 -41 -8 -55 -13 -14 -5 -45 -14 -70 -21 -25 -6 -60 -16 -79 -22 -18
-5 -47 -12 -63 -15 -16 -2 -47 -11 -69 -18 -21 -8 -39 -12 -39 -9 0 12 -52
-32 -142 -123 -54 -53 -95 -99 -93 -101 3 -3 10 0 17 5 13 10 55 23 93 28 11
2 33 8 48 14 30 12 82 23 110 25 9 0 17 4 17 9 0 5 6 7 14 4 8 -3 17 -3 21 1
4 4 10 7 13 8 4 0 14 4 22 7 8 4 26 8 40 11 14 2 61 14 105 26 44 12 87 22 95
23 8 0 21 4 28 10 8 6 30 12 49 14 20 1 42 8 49 14 8 6 14 9 14 6 0 -3 21 1
48 9 26 8 54 17 62 19 8 2 42 10 75 18 33 9 87 23 120 32 33 9 67 18 75 20 8
1 35 9 60 16 25 7 48 13 53 15 4 1 8 2 10 3 1 2 12 4 25 7 13 2 63 15 112 29
49 14 96 25 105 25 12 0 15 6 10 19 -3 11 -8 29 -10 42 -8 39 -26 89 -33 88
-4 0 -16 -4 -27 -8z"/>
<path d="M2955 4640 c3 -5 8 -18 10 -27 4 -17 34 -137 39 -158 2 -5 5 -17 9
-25 3 -8 10 -35 16 -60 6 -25 34 -130 62 -235 28 -104 53 -197 54 -205 2 -8 4
-15 5 -15 1 0 3 -7 5 -15 1 -8 10 -42 19 -75 9 -33 18 -67 20 -75 2 -8 18 -68
36 -133 17 -64 33 -125 35 -135 2 -9 23 -84 45 -167 43 -155 108 -399 114
-425 2 -8 11 -40 20 -70 20 -68 75 -276 82 -310 3 -14 14 -54 24 -90 11 -36
21 -74 22 -85 2 -11 7 -25 10 -31 4 -6 9 -21 11 -35 3 -13 17 -69 32 -124 15
-55 34 -125 41 -155 8 -30 16 -59 18 -65 1 -5 6 -27 11 -47 4 -21 9 -38 11
-38 3 0 295 291 650 646 l645 645 -53 53 -53 52 -544 -543 c-299 -299 -550
-543 -557 -543 -14 0 -22 12 -28 42 -2 7 -5 20 -8 28 -7 19 -29 98 -33 119 -4
18 -39 148 -62 231 -8 30 -15 63 -15 72 0 10 -3 20 -9 23 -5 4 -9 16 -9 29 0
12 -3 26 -7 30 -4 3 -8 14 -9 24 -3 20 -4 27 -39 152 -14 52 -28 106 -31 120
-2 14 -11 45 -18 70 -8 25 -24 83 -36 130 -12 47 -31 116 -42 154 -11 38 -21
76 -23 85 -5 27 -36 144 -46 176 -15 50 -48 168 -53 195 -3 14 -15 59 -26 100
-28 100 -60 221 -65 240 -2 8 -11 42 -20 75 -9 33 -18 67 -20 75 -1 8 -10 42
-19 75 -9 33 -19 69 -21 80 -3 11 -11 42 -19 68 -8 26 -11 47 -8 47 10 1 -31
24 -45 26 -6 1 -27 7 -45 12 -63 19 -90 23 -83 12z"/>
<path d="M7129 4646 c-2 -2 -20 -6 -40 -9 -20 -2 -41 -7 -46 -10 -5 -3 -22 -8
-37 -11 -16 -3 -30 -6 -31 -8 -3 -3 -24 -78 -75 -273 -10 -38 -31 -113 -45
-165 -15 -52 -29 -112 -32 -132 -3 -21 -9 -38 -13 -38 -4 0 -10 -17 -13 -37
-3 -21 -20 -90 -37 -153 -18 -63 -33 -122 -36 -130 -2 -8 -11 -42 -20 -75 -9
-33 -18 -73 -21 -90 -3 -16 -9 -35 -14 -40 -4 -6 -10 -25 -14 -42 -3 -18 -9
-43 -15 -57 -5 -15 -8 -26 -5 -26 2 0 -1 -15 -7 -32 -26 -86 -57 -205 -64
-248 -4 -19 -11 -38 -18 -42 -6 -4 -8 -8 -4 -8 4 0 1 -21 -7 -47 -8 -27 -23
-84 -35 -128 -12 -44 -28 -105 -37 -135 -8 -30 -17 -66 -19 -80 -3 -14 -8 -36
-13 -50 -9 -26 -15 -48 -56 -200 -13 -52 -29 -108 -34 -125 -6 -16 -13 -46
-16 -65 -7 -38 -25 -56 -37 -37 -4 7 -8 8 -8 3 0 -4 -405 397 -900 892 -494
495 -902 897 -905 893 -4 -3 -11 -7 -16 -7 -5 -1 -11 -3 -14 -4 -3 -1 -8 -3
-12 -4 -5 -1 -26 -7 -47 -14 -22 -6 -43 -9 -48 -6 -53 33 141 -166 1018 -1042
564 -565 1027 -1024 1028 -1023 2 2 11 36 21 74 9 39 21 81 26 95 5 14 11 36
13 50 3 14 17 68 32 120 28 102 42 156 48 180 15 58 59 221 67 246 5 17 11 40
13 50 3 10 12 46 21 79 9 33 28 103 41 155 56 211 63 237 77 290 8 30 20 69
27 85 6 17 11 32 10 35 -2 8 36 157 51 200 5 14 17 61 28 105 11 44 27 107 36
140 8 33 27 103 41 155 14 52 30 110 36 129 6 19 19 69 30 110 11 42 23 90 27
106 4 17 8 32 9 35 0 3 3 12 6 20 2 8 12 42 21 75 9 33 20 74 25 90 5 17 12
47 16 68 3 20 10 40 15 43 5 3 7 9 4 14 -3 5 -1 20 5 34 9 24 9 31 -1 22z"/>
<path d="M3925 4590 c41 -46 129 -130 137 -130 4 0 8 -6 8 -12 0 -15 56 -54
71 -51 5 2 9 -2 9 -8 0 -5 4 -8 8 -5 5 3 49 -6 98 -20 107 -29 134 -36 157
-37 9 -1 17 -5 17 -9 0 -4 3 -7 8 -7 4 1 9 1 12 -1 3 -1 16 -4 30 -7 39 -7 55
-11 55 -13 0 -1 8 -3 17 -5 9 -2 32 -8 50 -14 26 -8 73 -9 73 -1 0 1 7 3 15 5
8 2 26 7 40 10 14 3 36 8 49 11 14 3 28 7 33 10 10 7 48 16 71 17 9 1 17 5 17
10 0 4 6 5 13 1 8 -5 9 -4 2 4 -6 6 -26 13 -45 16 -19 2 -47 9 -63 15 -15 6
-38 13 -50 16 -21 4 -80 19 -122 31 -11 3 -27 7 -35 9 -8 1 -22 5 -30 9 -19 8
-184 51 -240 62 -13 3 -29 9 -36 15 -6 5 -13 6 -16 4 -3 -3 -18 -1 -34 6 -16
6 -38 12 -49 15 -29 5 -108 25 -125 31 -8 4 -24 8 -35 10 -11 2 -27 6 -35 10
-8 3 -22 7 -30 8 -8 1 -26 5 -40 10 l-25 8 20 -23z"/>
<path d="M6132 4599 c-4 -4 -27 -12 -52 -17 -25 -6 -72 -18 -105 -27 -33 -9
-69 -18 -80 -20 -11 -2 -41 -11 -67 -19 -27 -8 -48 -13 -48 -10 0 3 -10 -1
-22 -7 -13 -7 -33 -14 -45 -15 -13 -1 -37 -7 -55 -13 -18 -6 -46 -13 -63 -17
-38 -9 -44 -11 -47 -14 -4 -2 -40 -10 -60 -12 -10 -1 -18 -7 -18 -12 0 -5 -3
-7 -6 -3 -3 3 -17 2 -30 -3 -23 -9 -57 -18 -94 -24 -8 -1 -22 -5 -30 -8 -8 -4
-35 -11 -60 -17 -25 -7 -52 -13 -60 -16 -8 -2 -59 -15 -113 -29 -53 -14 -101
-27 -106 -30 -5 -3 -26 -8 -47 -12 -22 -3 -43 -9 -49 -12 -5 -4 -19 -8 -30
-10 -11 -1 -36 -7 -55 -12 -19 -5 -37 -9 -40 -8 -3 1 -14 -4 -26 -10 -11 -6
-32 -13 -45 -15 -13 -3 -44 -10 -69 -17 -25 -7 -49 -13 -55 -15 -5 -1 -17 -5
-25 -8 -8 -4 -29 -8 -45 -10 -17 -2 -37 -7 -45 -12 -16 -10 -16 -10 -75 -20
-22 -4 -48 -11 -57 -16 -10 -5 -18 -7 -18 -4 0 3 -13 -1 -29 -9 -16 -9 -31
-13 -33 -10 -3 2 -18 0 -34 -7 -29 -11 -53 -17 -89 -24 -11 -2 -45 -11 -75
-20 -30 -10 -66 -19 -80 -21 -14 -3 -36 -9 -50 -14 -24 -9 -156 -44 -210 -56
-37 -9 -44 -10 -60 -17 -8 -4 -27 -8 -42 -11 -15 -3 -33 -8 -40 -12 -7 -4 -24
-8 -38 -9 -14 -1 -31 -5 -38 -9 -7 -4 -25 -9 -40 -12 -47 -8 -54 -13 -47 -32
8 -21 15 -48 22 -85 3 -15 9 -30 14 -33 8 -5 75 9 109 23 19 8 39 12 68 15 12
1 22 5 22 8 0 3 11 7 26 8 14 1 33 6 42 11 9 5 35 12 56 15 22 4 44 10 50 14
6 5 18 8 26 7 8 -1 23 3 33 8 23 11 57 19 80 19 9 -1 17 3 17 7 0 4 6 8 13 8
26 1 81 14 98 24 11 5 19 8 19 5 0 -3 24 3 54 14 30 10 57 16 59 13 3 -2 14 0
24 6 11 5 30 12 44 14 13 2 58 13 99 25 138 41 155 45 175 49 11 2 31 7 45 13
14 5 39 11 55 14 17 3 45 9 63 15 17 5 32 8 32 5 0 -2 12 2 28 9 15 8 54 20
87 27 33 8 62 14 65 15 3 1 19 5 35 9 17 4 41 12 55 17 14 5 39 12 55 14 17 3
41 10 55 15 14 5 36 11 50 13 14 2 32 7 40 10 20 8 169 48 195 52 11 2 20 4
20 5 0 1 7 3 15 5 8 1 42 11 75 20 33 10 62 18 65 18 3 0 25 6 50 14 25 7 53
16 63 18 28 8 56 15 75 19 9 2 37 10 62 17 25 6 52 13 60 14 60 10 110 37 160
87 141 142 145 147 121 145 -11 -1 -25 -4 -29 -8z"/>
<path d="M5412 4188 c-5 -5 -27 -11 -49 -12 -22 -2 -48 -8 -59 -13 -21 -11
-69 -25 -97 -28 -10 -1 -23 -8 -30 -16 -7 -7 -8 -11 -4 -7 5 3 39 -3 75 -13
37 -11 75 -21 85 -22 9 0 17 -4 17 -7 0 -3 12 -7 28 -8 15 -1 41 -7 58 -12 17
-6 40 -13 50 -15 30 -7 86 -22 122 -33 17 -6 32 -8 32 -5 0 3 6 1 13 -5 6 -5
26 -13 42 -16 40 -7 156 -36 175 -44 8 -3 22 -7 30 -8 8 -1 30 -7 48 -13 17
-5 32 -8 32 -5 0 3 10 -1 22 -7 21 -12 33 -14 83 -21 11 -2 22 -6 25 -10 3 -4
19 -9 35 -12 17 -2 32 -5 35 -7 3 -1 10 -3 15 -4 6 0 26 -6 45 -13 19 -6 46
-14 60 -16 14 -3 26 -5 28 -7 1 -1 5 -2 10 -3 71 -16 119 -31 129 -38 7 -6 19
-8 27 -5 7 3 19 0 25 -6 6 -6 11 -8 11 -4 0 3 18 0 40 -8 22 -8 41 -14 43 -14
1 0 10 -3 20 -6 29 -12 43 1 54 51 7 27 15 57 18 66 5 13 -2 19 -37 28 -24 7
-50 15 -58 18 -19 6 -29 9 -62 15 -15 3 -33 9 -38 12 -6 4 -21 8 -33 10 -32 5
-110 25 -127 32 -8 3 -22 7 -30 9 -16 2 -123 31 -225 59 -33 9 -67 18 -75 20
-8 2 -27 8 -42 14 -16 6 -28 9 -28 6 0 -2 -18 2 -39 10 -22 7 -42 11 -45 8 -3
-4 -6 0 -6 7 0 7 -3 11 -6 8 -3 -3 -21 -2 -41 4 -19 5 -45 12 -57 14 -24 6
-25 6 -86 23 -25 7 -52 14 -60 16 -8 2 -42 11 -75 21 -70 20 -111 24 -123 12z"/>
<path d="M5341 3684 l-254 -255 53 -54 52 -53 284 284 c156 156 284 286 284
288 0 3 -42 16 -55 17 -3 0 -23 6 -46 14 -23 8 -47 15 -53 15 -6 -1 -125 -116
-265 -256z"/>
</g>
</svg>
