<?xml version="1.0" standalone="no"?>
<!DOCTYPE svg PUBLIC "-//W3C//DTD SVG 20010904//EN"
 "http://www.w3.org/TR/2001/REC-SVG-20010904/DTD/svg10.dtd">
<svg version="1.0" xmlns="http://www.w3.org/2000/svg"
 width="1009.000000pt" height="1009.000000pt" viewBox="0 0 1009.000000 1009.000000"
 preserveAspectRatio="xMidYMid meet">
<metadata>
Created by potrace 1.11, written by Peter Selinger 2001-2013
</metadata>
<g transform="translate(0.000000,1009.000000) scale(0.100000,-0.100000)"
fill="#000000" stroke="none">
<path d="M6594 9731 c-2 -2 -4 -421 -4 -930 l0 -925 57 -100 c32 -56 63 -110
70 -121 6 -11 19 -35 29 -53 9 -18 19 -31 21 -28 3 3 5 441 5 974 -1 778 2
973 12 988 12 16 53 17 657 18 354 1 649 -2 656 -7 6 -4 13 -4 16 0 5 8 624 9
632 2 8 -9 13 -58 6 -61 -4 -2 -40 -61 -81 -133 -40 -71 -80 -138 -88 -147 -8
-10 -11 -18 -6 -18 5 0 5 -4 -1 -8 -5 -4 -16 -18 -24 -32 -8 -14 -55 -95 -104
-180 -49 -85 -101 -175 -115 -200 -13 -25 -46 -81 -72 -125 -51 -88 -94 -161
-125 -216 -11 -20 -58 -102 -105 -183 -115 -200 -116 -201 -166 -287 -42 -72
-55 -107 -35 -94 5 3 16 -2 24 -10 9 -8 18 -15 21 -15 4 0 24 -11 46 -25 22
-14 40 -22 40 -18 0 5 4 2 8 -4 5 -9 17 5 35 40 15 28 33 61 40 72 20 33 53
88 79 135 31 54 238 414 280 485 16 28 32 58 35 68 3 9 9 17 14 17 5 0 9 4 9
9 0 5 23 49 51 98 28 48 61 104 71 123 27 47 157 271 168 290 25 41 95 166 99
175 2 6 9 17 16 25 7 8 25 38 40 65 14 28 37 68 51 90 13 22 27 47 31 55 3 8
14 26 23 40 23 34 80 140 80 148 0 7 -2489 10 -2496 3z"/>
<path d="M5618 9055 c-3 -3 27 -61 67 -128 39 -67 165 -284 280 -482 215 -372
225 -389 282 -490 19 -33 38 -67 43 -75 20 -31 100 -171 100 -174 0 -3 94
-164 120 -206 5 -8 24 -42 43 -75 67 -117 285 -495 318 -549 10 -17 25 -44 33
-61 9 -16 27 -48 41 -70 13 -22 32 -55 42 -72 19 -37 31 -41 40 -15 4 9 21 40
39 68 40 63 48 92 32 121 -13 23 -122 210 -285 493 -296 510 -343 593 -343
601 0 5 -4 9 -10 9 -5 0 -10 4 -10 10 0 5 -13 31 -29 58 -15 26 -39 68 -53 93
-14 24 -64 111 -112 194 -64 110 -85 156 -81 172 7 30 34 29 87 -2 24 -14 51
-28 61 -32 9 -3 17 -9 17 -14 0 -5 6 -9 14 -9 7 0 25 -9 40 -21 14 -11 26 -18
26 -15 0 3 16 -6 36 -19 20 -14 42 -25 48 -25 17 0 15 202 -2 208 -7 2 -18 9
-25 16 -6 7 -16 13 -20 13 -4 1 -34 16 -65 34 -31 18 -59 33 -62 34 -3 0 -25
13 -50 29 -25 15 -55 35 -67 42 -13 8 -23 11 -23 7 0 -5 -4 -3 -8 2 -11 16
-92 66 -92 58 0 -5 -4 -3 -8 2 -4 6 -18 16 -31 23 -48 28 -89 51 -235 136 -82
47 -151 86 -154 86 -3 0 -13 7 -22 15 -9 8 -19 13 -22 10z"/>
<path d="M6850 8244 l0 -109 33 -19 c17 -10 56 -32 85 -48 71 -38 105 -60 114
-73 4 -5 8 -6 8 -1 0 5 6 4 13 -2 6 -5 29 -19 50 -31 20 -12 52 -30 71 -40 18
-11 44 -25 57 -33 13 -7 27 -17 31 -23 4 -5 8 -6 8 -2 0 4 16 -4 35 -19 19
-14 35 -23 35 -19 0 3 12 -3 26 -14 15 -12 32 -21 39 -21 7 0 16 -7 19 -16 4
-9 9 -14 13 -11 3 4 18 -2 33 -13 16 -11 31 -20 35 -20 4 0 19 -8 33 -19 15
-10 43 -27 62 -38 19 -11 61 -34 92 -52 32 -17 84 -47 115 -66 32 -19 63 -35
70 -35 6 0 13 -4 15 -8 4 -9 80 -57 91 -57 4 0 12 -7 17 -15 5 -8 10 -11 10
-6 0 5 6 4 13 -2 6 -5 29 -19 50 -31 20 -12 52 -29 70 -40 17 -10 66 -38 107
-61 41 -24 87 -51 103 -62 15 -11 27 -16 27 -13 0 4 12 -3 26 -14 15 -12 32
-21 39 -21 7 0 15 -7 19 -15 3 -8 9 -14 13 -13 4 1 46 -20 93 -47 47 -28 92
-54 102 -60 9 -5 41 -23 70 -39 29 -16 65 -37 81 -48 15 -11 27 -16 27 -11 0
4 4 3 8 -2 4 -6 45 -33 92 -60 47 -27 88 -54 92 -60 4 -5 8 -6 8 -1 0 5 6 4
13 -2 6 -5 28 -19 47 -30 274 -155 390 -226 390 -241 0 -23 -12 -38 -40 -50
-14 -6 -32 -15 -40 -21 -43 -29 -172 -100 -180 -100 -6 0 -10 -4 -10 -9 0 -5
-8 -11 -17 -14 -10 -3 -40 -20 -68 -36 -27 -17 -57 -34 -65 -37 -8 -4 -22 -13
-32 -21 -9 -8 -23 -16 -32 -17 -8 -1 -24 -10 -36 -21 -11 -10 -20 -14 -20 -9
0 5 -4 4 -8 -2 -4 -6 -34 -25 -67 -44 -33 -19 -63 -38 -67 -44 -4 -6 -8 -7 -8
-3 0 5 -12 0 -28 -10 -38 -25 -60 -38 -116 -68 -27 -15 -56 -33 -64 -41 -7 -8
-18 -12 -23 -9 -5 4 -9 2 -9 -3 0 -5 -8 -12 -17 -15 -10 -4 -36 -18 -58 -31
-22 -14 -59 -35 -82 -47 -23 -11 -47 -27 -54 -35 -6 -7 -15 -11 -20 -8 -5 3
-9 0 -9 -5 0 -6 -6 -11 -14 -11 -7 0 -25 -9 -39 -20 -14 -11 -32 -20 -41 -20
-9 0 -16 -4 -16 -9 0 -5 -26 -21 -57 -37 -32 -16 -60 -32 -63 -35 -8 -10 -131
-79 -139 -79 -5 0 -14 -7 -21 -15 -7 -8 -16 -12 -21 -9 -5 3 -9 1 -9 -4 0 -5
-11 -14 -25 -20 l-26 -12 25 -42 c14 -24 35 -60 46 -80 l20 -37 50 29 c28 17
52 30 54 30 2 0 33 17 67 38 66 40 127 75 189 108 19 11 37 21 40 24 3 3 25
16 50 29 25 14 47 27 50 30 3 3 23 16 45 28 22 11 56 30 75 42 19 11 41 24 49
28 8 3 63 35 123 69 59 35 108 60 108 56 0 -4 4 -1 8 6 9 13 159 102 174 102
4 0 8 5 8 11 0 5 5 7 10 4 6 -3 10 -1 10 4 0 6 4 11 10 11 5 0 56 27 112 60
113 67 122 72 188 109 25 14 47 29 48 33 2 4 12 8 23 8 10 0 19 4 19 8 0 10
50 37 63 34 4 -1 7 3 7 8 0 6 7 10 15 10 8 0 15 4 15 8 0 5 16 14 35 22 19 8
35 17 35 21 0 4 10 11 23 15 12 4 45 21 73 39 28 18 60 36 72 39 12 4 22 12
22 17 0 5 4 9 10 9 5 0 23 8 40 18 l30 19 -28 14 c-15 8 -29 16 -32 19 -3 3
-22 14 -42 25 -21 11 -38 23 -38 28 0 4 -3 6 -8 3 -4 -2 -26 9 -50 25 -23 16
-46 29 -51 29 -5 0 -20 9 -33 20 -14 10 -28 16 -32 13 -3 -3 -6 -2 -6 3 0 5
-17 18 -37 29 -21 10 -50 28 -65 38 -16 10 -28 15 -28 10 0 -4 -4 -3 -8 3 -4
6 -34 26 -67 45 -33 18 -72 41 -86 49 -14 8 -62 35 -105 59 -43 25 -81 47 -84
51 -4 6 -24 15 -48 22 -4 1 -16 10 -26 20 -11 10 -23 18 -27 18 -11 0 -133 73
-141 85 -4 5 -8 6 -8 1 0 -5 -6 -4 -12 2 -7 5 -35 22 -63 37 -27 16 -52 31
-55 34 -5 6 -29 19 -110 63 -19 10 -48 27 -65 37 -16 10 -48 28 -70 41 -118
67 -232 135 -249 149 -13 11 -17 12 -11 2 8 -14 -54 26 -66 42 -3 5 -10 9 -15
8 -5 0 -22 8 -39 18 -16 9 -32 17 -35 17 -3 -1 -19 9 -37 22 -17 12 -36 22
-42 22 -6 0 -11 3 -11 8 0 4 -15 13 -32 21 -18 8 -35 17 -38 20 -4 6 -138 84
-260 153 -19 11 -41 25 -47 30 -7 6 -13 7 -13 2 0 -5 -5 -1 -11 9 -6 9 -14 15
-18 12 -5 -2 -14 2 -21 10 -7 8 -19 15 -26 15 -8 0 -14 5 -14 12 0 6 -3 8 -7
5 -3 -4 -21 5 -40 19 -18 14 -33 22 -33 18 0 -3 -7 0 -16 7 -18 15 -49 33 -79
48 -11 5 -36 20 -56 34 -21 14 -46 28 -58 32 -11 3 -27 12 -34 18 -7 7 -28 20
-47 31 -108 59 -146 80 -150 85 -3 3 -18 13 -35 21 -16 8 -32 17 -35 20 -3 3
-18 12 -35 20 -16 8 -38 21 -47 29 -17 13 -18 8 -18 -95z"/>
<path d="M7630 7555 c-8 -19 -17 -35 -22 -35 -4 0 -8 -5 -8 -11 0 -5 -24 -51
-54 -102 -30 -51 -63 -108 -74 -127 -11 -19 -102 -177 -202 -350 -101 -173
-194 -335 -208 -360 -13 -25 -28 -49 -32 -55 -4 -5 -21 -35 -37 -65 -17 -30
-56 -98 -86 -151 l-56 -96 -1 -177 c-1 -98 1 -180 4 -183 3 -4 6 1 6 10 0 9 5
17 10 17 6 0 9 3 8 8 -1 4 16 39 39 77 22 39 41 74 41 79 0 5 4 12 9 15 5 3
43 65 83 136 41 72 77 132 80 135 3 3 14 23 26 45 43 84 229 400 236 403 4 2
8 11 8 21 0 9 9 27 20 39 11 12 20 24 20 27 0 4 17 37 39 73 21 37 48 83 59
102 11 19 43 76 72 125 29 50 85 147 125 216 l72 126 -34 21 c-18 12 -35 22
-39 22 -3 0 -19 9 -35 21 -16 11 -29 17 -29 13 0 -3 -6 -2 -13 5 -11 8 -16 3
-27 -24z"/>
<path d="M6590 6060 c0 -627 3 -1140 6 -1140 3 0 26 12 52 27 26 14 64 35 85
46 36 20 37 23 38 76 0 31 0 455 0 942 l0 886 -65 114 c-37 63 -71 121 -76
129 -6 8 -14 25 -20 38 -5 12 -12 22 -15 22 -3 0 -5 -513 -5 -1140z"/>
<path d="M7300 6471 c0 -4 -11 -25 -25 -45 -13 -20 -22 -36 -20 -36 3 0 -8
-21 -24 -46 l-29 -45 62 -107 c61 -104 424 -732 463 -802 11 -19 53 -91 93
-160 40 -69 83 -143 96 -165 12 -22 61 -107 109 -190 49 -82 98 -168 110 -190
12 -22 62 -107 110 -190 48 -82 95 -163 105 -180 47 -83 92 -162 100 -175 5
-8 39 -67 75 -130 36 -63 70 -122 75 -130 5 -8 19 -33 31 -55 12 -22 44 -77
71 -122 54 -90 63 -117 44 -132 -9 -8 -490 -12 -1571 -13 l-1557 -3 -49 -85
-48 -85 37 -3 c20 -1 825 -3 1788 -5 l1752 -2 -24 45 c-13 25 -37 68 -54 95
-16 28 -33 57 -37 65 -3 8 -16 31 -28 50 -12 19 -33 55 -47 80 -29 51 -275
477 -307 530 -11 19 -24 42 -28 50 -3 8 -16 31 -28 50 -12 19 -33 55 -47 80
-22 39 -264 459 -288 500 -5 8 -87 150 -182 315 -95 165 -177 307 -183 317 -5
9 -17 29 -26 45 -18 32 -345 600 -359 623 -5 8 -41 70 -80 138 -67 116 -80
133 -80 113z"/>
<path d="M6315 5277 c-104 -181 -243 -422 -309 -536 -65 -113 -130 -226 -143
-250 -14 -24 -60 -103 -102 -175 -43 -73 -80 -138 -84 -146 -4 -8 -21 -37 -37
-65 -17 -27 -35 -59 -40 -70 -6 -11 -21 -38 -35 -60 -14 -22 -30 -49 -36 -60
-5 -11 -15 -29 -22 -40 -7 -11 -39 -67 -72 -125 -33 -58 -63 -106 -67 -108 -4
-2 -8 -8 -8 -14 0 -6 -15 -36 -34 -67 -19 -31 -44 -74 -56 -96 -24 -42 -125
-218 -216 -372 -30 -50 -54 -96 -54 -102 0 -6 -4 -11 -10 -11 -5 0 -10 -4 -10
-8 0 -5 -39 -76 -86 -158 -48 -82 -95 -165 -106 -184 -11 -19 -28 -49 -38 -65
-13 -21 -16 -35 -10 -45 6 -8 10 -11 10 -7 0 5 13 -1 29 -12 16 -12 34 -21 40
-21 6 0 11 -5 11 -11 0 -5 4 -8 9 -5 5 3 14 -1 21 -9 7 -8 16 -15 20 -15 8 0
217 355 233 394 4 11 11 23 15 26 4 3 46 73 93 155 47 83 118 206 157 274 40
68 72 127 72 132 0 5 5 9 10 9 6 0 10 4 10 9 0 5 48 92 106 193 59 100 118
203 132 227 14 25 38 68 55 95 34 58 50 85 97 171 19 33 39 63 44 67 6 4 8 8
4 8 -4 0 7 24 25 53 19 28 60 99 92 157 33 58 62 107 65 110 6 6 48 82 64 117
6 13 14 23 19 23 4 0 7 5 7 11 0 6 20 44 45 85 25 40 45 76 45 79 0 2 16 29
35 59 19 30 35 58 35 61 0 3 11 24 26 46 14 22 34 56 45 75 34 61 56 98 80
138 22 37 23 50 24 209 0 92 -2 172 -5 176 -3 5 -90 -140 -195 -322z"/>
<path d="M7585 5403 c-16 -9 -32 -19 -35 -22 -3 -3 -28 -18 -57 -32 -29 -15
-49 -29 -46 -33 4 -3 1 -6 -6 -6 -6 0 -44 -19 -84 -41 -40 -23 -87 -50 -104
-60 -18 -10 -33 -16 -33 -14 0 3 -9 -4 -20 -15 -11 -11 -24 -20 -30 -20 -5 0
-34 -16 -64 -35 -30 -19 -60 -35 -66 -35 -5 0 -10 -4 -10 -9 0 -5 -15 -15 -32
-22 -18 -7 -56 -28 -84 -46 -29 -17 -54 -29 -58 -26 -3 4 -6 2 -6 -4 0 -10
-49 -38 -62 -35 -5 1 -8 -2 -8 -7 0 -5 -25 -22 -55 -37 -30 -16 -55 -32 -55
-37 0 -4 -4 -6 -9 -3 -5 3 -14 -1 -21 -9 -7 -8 -16 -12 -21 -9 -5 3 -9 0 -9
-5 0 -6 -7 -11 -15 -11 -8 0 -15 -4 -15 -10 0 -5 -4 -10 -10 -10 -5 0 -48 -22
-96 -50 -48 -27 -91 -50 -95 -50 -5 0 -9 -4 -9 -9 0 -5 -10 -13 -22 -17 -55
-17 -124 -72 -149 -120 -14 -27 -52 -93 -83 -146 -31 -53 -56 -99 -56 -101 0
-5 65 27 83 41 7 5 32 20 57 33 25 13 49 28 55 32 17 14 79 47 118 64 20 9 37
19 37 23 0 4 18 15 40 25 22 10 40 22 40 27 0 4 6 8 13 8 7 0 29 11 50 25 20
14 37 22 37 18 0 -4 4 -3 8 2 8 12 30 25 100 62 28 15 52 31 52 35 0 4 6 8 14
8 7 0 30 11 50 25 21 14 42 22 48 19 6 -4 8 -3 5 2 -3 5 29 29 71 52 42 24 84
47 92 52 55 35 146 84 153 82 4 -1 7 2 7 6 0 5 21 19 48 32 26 13 53 30 60 37
7 7 24 16 38 19 13 3 24 10 24 16 0 5 4 7 9 4 5 -4 11 -2 13 2 1 5 37 28 78
51 41 23 91 51 110 63 19 11 56 31 82 45 25 13 48 30 51 36 4 12 -73 157 -83
156 -3 0 -18 -7 -35 -16z"/>
<path d="M6733 4616 c-13 -6 -23 -14 -23 -18 0 -5 -4 -8 -10 -8 -5 0 -32 -14
-60 -31 l-50 -31 2 -446 3 -447 87 0 88 0 0 75 c3 618 1 914 -6 916 -5 1 -19
-4 -31 -10z"/>
<path d="M1108 4508 c40 -66 302 -519 302 -523 0 -1 18 -33 41 -70 22 -37 50
-84 61 -104 12 -20 34 -58 50 -86 16 -27 32 -58 35 -67 6 -20 3 -20 128 -21
53 0 89 4 88 9 -1 6 -38 73 -83 151 -60 103 -80 147 -75 162 9 30 49 27 102
-9 24 -16 46 -30 49 -30 3 0 19 -9 35 -21 16 -11 29 -17 29 -12 0 4 7 -1 15
-11 8 -11 15 -16 15 -12 0 4 15 -3 33 -16 17 -13 34 -23 37 -23 3 0 48 -26
102 -58 53 -31 101 -57 106 -57 6 0 12 -3 14 -8 4 -9 237 -142 249 -142 5 0 9
-3 9 -7 0 -5 18 -17 40 -27 22 -11 40 -24 40 -29 0 -6 3 -7 6 -4 4 4 19 -2 33
-12 14 -10 41 -24 59 -32 17 -8 32 -17 32 -20 0 -4 19 -16 43 -28 23 -12 49
-26 57 -31 39 -25 136 -78 144 -78 5 0 12 -6 17 -13 4 -7 15 -14 25 -15 9 -2
20 -7 23 -12 3 -4 26 -19 51 -33 25 -13 47 -27 48 -31 2 -5 9 -8 16 -8 6 0 28
-11 49 -25 20 -14 37 -22 37 -18 0 4 4 3 8 -2 11 -16 148 -95 164 -95 8 0 18
4 24 9 9 9 66 43 117 68 15 8 27 18 27 23 0 7 -34 28 -135 86 -11 6 -36 20
-56 31 -20 12 -47 27 -60 35 -13 7 -26 15 -29 18 -3 3 -25 16 -50 29 -25 14
-126 72 -225 129 -222 129 -237 138 -305 175 -30 17 -67 39 -82 49 -16 11 -28
16 -28 11 0 -4 -4 -3 -8 2 -8 12 -64 46 -259 156 -21 12 -50 30 -64 40 -14 10
-28 16 -31 13 -3 -2 -11 2 -18 11 -7 8 -19 15 -26 15 -8 0 -14 5 -14 10 0 6
-6 10 -14 10 -7 0 -25 9 -40 21 -14 11 -26 18 -26 14 0 -4 -7 1 -16 9 -8 9
-22 16 -30 16 -8 0 -14 5 -14 10 0 6 -5 10 -10 10 -6 0 -29 12 -53 27 -23 15
-46 27 -50 28 -4 0 -11 6 -16 13 -5 8 -11 13 -15 12 -4 -1 -31 12 -61 29 -30
17 -57 31 -61 30 -3 0 -20 11 -39 25 -18 14 -36 26 -40 26 -3 0 -24 12 -48 27
-23 15 -45 26 -49 25 -5 -1 -8 2 -8 8 0 6 -4 10 -9 10 -6 0 -38 17 -73 37 -35
20 -65 36 -67 34 -2 -1 -7 2 -10 7 -6 9 -268 162 -278 162 -2 0 4 -15 15 -32z"/>
<path d="M5641 4283 c-1 -7 -8 -13 -16 -13 -8 0 -15 -4 -15 -10 0 -5 -4 -10
-9 -10 -8 0 -114 -57 -176 -95 -11 -7 -24 -12 -29 -13 -5 0 -12 -4 -15 -9 -9
-14 -213 -128 -222 -125 -5 1 -9 -3 -9 -9 0 -5 -15 -17 -32 -25 -18 -8 -51
-26 -73 -39 -22 -14 -51 -30 -65 -36 -13 -6 -27 -14 -30 -18 -3 -4 -34 -23
-70 -43 -36 -19 -89 -49 -118 -66 -29 -18 -56 -32 -61 -32 -4 0 -16 -9 -26
-20 -9 -10 -20 -19 -24 -18 -10 2 -61 -25 -61 -33 0 -4 -11 -10 -25 -13 -59
-15 -14 -21 152 -20 l178 1 62 37 c34 20 66 36 73 36 6 0 9 4 6 9 -3 5 6 12
22 16 15 3 34 12 42 19 8 7 35 24 60 37 25 13 47 26 50 29 3 3 14 10 25 16 11
6 41 23 68 37 26 15 68 39 95 54 26 14 49 30 50 35 2 4 10 8 17 8 7 0 25 24
40 53 15 28 30 54 34 57 3 3 15 24 26 47 11 24 23 43 28 43 4 0 7 5 7 10 0 6
12 29 26 51 14 22 23 46 20 52 -3 9 -5 9 -5 0z"/>
<path d="M420 3490 c-1 -1256 1 -2424 4 -2428 3 -2 22 6 43 19 21 13 42 24 46
24 4 0 11 6 16 13 5 8 11 14 14 14 17 0 47 11 47 17 0 9 72 45 83 43 4 -1 7 3
7 8 0 6 11 15 24 19 13 5 47 25 77 43 30 19 75 45 102 58 26 14 47 29 47 33 0
5 5 5 10 2 6 -3 10 -2 10 4 0 10 38 27 53 23 4 -1 7 2 7 7 0 5 12 16 28 24 51
26 147 80 157 88 23 17 258 149 266 149 5 0 9 5 9 10 0 6 4 10 10 10 5 0 55
27 111 60 55 33 103 60 105 60 2 0 28 16 58 35 30 19 59 35 64 35 5 0 15 7 22
15 7 8 16 13 20 10 4 -2 17 5 28 16 12 11 22 16 22 12 0 -4 4 -3 8 2 7 10 18
17 122 75 30 17 78 44 105 61 28 16 65 37 83 45 17 8 32 19 32 26 0 6 3 8 6 5
4 -4 19 2 34 13 16 11 33 20 39 20 26 0 20 33 -20 103 l-43 74 -50 -30 c-125
-74 -199 -115 -210 -115 -5 0 -12 -4 -15 -9 -6 -8 -129 -83 -137 -83 -2 0 -28
-16 -58 -35 -29 -19 -56 -31 -60 -28 -3 4 -6 1 -6 -5 0 -7 -18 -19 -40 -28
-22 -9 -40 -20 -40 -26 0 -5 -4 -6 -10 -3 -5 3 -10 2 -10 -2 0 -5 -12 -14 -27
-21 -36 -16 -89 -47 -105 -60 -7 -5 -37 -22 -65 -37 -29 -15 -53 -31 -53 -37
0 -5 -3 -7 -7 -5 -5 2 -21 -4 -38 -14 -16 -10 -52 -31 -80 -47 -27 -16 -67
-38 -88 -50 -51 -30 -92 -53 -162 -92 -33 -19 -79 -47 -102 -62 -24 -16 -43
-25 -43 -21 0 4 -4 3 -8 -2 -4 -6 -20 -17 -37 -25 -16 -8 -35 -22 -42 -30 -7
-8 -13 -11 -13 -7 0 5 -12 0 -27 -11 -16 -10 -35 -22 -43 -26 -8 -4 -26 -13
-39 -21 -17 -9 -30 -11 -43 -4 -17 9 -18 53 -18 983 0 800 2 976 13 985 10 7
203 11 650 13 351 2 637 1 637 -2 0 -3 153 -5 340 -5 187 0 340 3 340 7 0 7
-53 38 -67 39 -5 0 -12 7 -16 15 -4 8 -12 14 -17 14 -5 0 -31 13 -58 29 -151
89 -119 81 -362 82 -120 1 -224 -2 -229 -6 -6 -3 -11 -3 -11 2 0 9 -414 8
-429 -2 -6 -3 -11 -3 -11 2 0 4 -216 8 -480 8 l-480 0 0 -75z"/>
<path d="M5219 3566 c-3 -4 -516 -6 -1139 -6 -624 0 -1130 -3 -1126 -7 4 -5
11 -8 14 -8 4 0 18 -8 32 -17 55 -35 175 -102 179 -99 2 1 7 -2 10 -7 3 -5 20
-17 38 -26 29 -14 120 -16 970 -16 l938 1 48 82 c26 45 46 88 45 95 -2 8 -6
11 -9 8z"/>
<path d="M1810 3297 c0 -4 11 -24 23 -45 13 -20 35 -57 49 -82 40 -71 63 -111
98 -170 18 -30 47 -80 64 -110 25 -44 118 -206 171 -298 6 -9 31 -53 56 -97
26 -44 56 -96 66 -115 11 -19 71 -122 132 -228 61 -106 120 -207 130 -225 10
-17 60 -104 111 -192 51 -88 101 -176 112 -195 11 -19 69 -118 128 -220 59
-102 160 -277 225 -389 64 -113 123 -214 130 -225 7 -12 26 -44 42 -72 15 -28
78 -137 138 -242 l110 -191 23 37 c12 20 28 49 35 64 6 16 15 28 19 28 5 0 8
4 8 9 0 4 29 58 64 119 36 61 76 131 89 154 14 24 47 83 76 131 28 49 51 93
51 98 0 5 5 9 10 9 6 0 10 5 10 10 0 6 18 40 40 76 22 36 40 67 40 69 0 1 51
90 113 197 62 107 117 201 121 209 4 7 12 23 19 34 7 11 29 49 50 85 21 36 42
72 47 80 19 31 154 267 183 320 17 30 38 66 47 80 9 14 31 51 48 82 l31 58
-22 14 c-100 61 -131 76 -137 69 -8 -7 -20 -29 -72 -123 -11 -19 -28 -48 -39
-65 -10 -16 -22 -36 -25 -44 -4 -7 -30 -52 -57 -100 -70 -121 -70 -120 -217
-376 -72 -126 -159 -277 -193 -334 -34 -58 -68 -117 -77 -133 -8 -15 -39 -68
-68 -118 -28 -49 -52 -94 -52 -99 0 -5 -4 -11 -8 -13 -4 -1 -34 -49 -65 -105
-32 -56 -65 -107 -74 -114 -21 -18 -42 -2 -73 53 -59 105 -145 253 -150 258
-3 3 -15 23 -27 45 -11 22 -118 208 -237 414 -119 205 -216 377 -216 382 0 5
-4 9 -10 9 -5 0 -10 4 -10 10 0 5 -22 47 -49 92 -26 46 -109 189 -183 318 -75
129 -190 329 -257 443 -66 115 -121 210 -121 211 0 2 -58 103 -130 226 -71
122 -130 225 -130 229 0 3 -47 6 -105 6 -58 0 -105 -3 -105 -8z"/>
<path d="M3890 3267 c-41 -21 -77 -41 -80 -45 -3 -4 -21 -15 -40 -24 -50 -25
-94 -52 -98 -60 -2 -5 -8 -8 -13 -8 -5 0 -64 -31 -130 -70 -66 -38 -124 -70
-129 -70 -6 0 -10 -4 -10 -10 0 -5 -5 -10 -11 -10 -6 0 -24 -9 -40 -21 -16
-11 -29 -17 -29 -12 0 4 -4 3 -8 -3 -4 -6 -25 -21 -47 -33 -22 -12 -62 -35
-90 -52 -27 -16 -61 -35 -75 -42 -14 -6 -27 -14 -30 -18 -3 -4 -27 -19 -55
-34 -27 -15 -72 -40 -100 -56 -27 -16 -66 -37 -85 -47 -19 -9 -36 -20 -38 -23
-2 -4 -32 -22 -67 -40 -36 -18 -65 -37 -65 -42 0 -4 -4 -6 -9 -3 -5 3 -14 -1
-21 -9 -7 -8 -19 -15 -27 -15 -28 0 -23 -30 16 -96 23 -37 41 -72 41 -77 0 -4
13 1 29 12 16 12 32 21 35 21 4 0 25 12 49 27 23 14 44 26 47 26 3 0 29 15 57
34 29 18 63 38 75 43 13 6 37 19 53 30 17 11 48 30 70 42 22 12 49 28 60 35
11 7 32 17 48 24 15 6 27 14 27 17 0 4 19 16 43 27 23 11 44 22 47 26 4 5 103
61 218 124 20 11 39 23 42 26 3 3 30 19 60 35 30 16 57 31 60 35 3 3 12 8 20
12 8 4 38 20 65 37 28 17 58 33 68 37 9 3 17 9 17 14 0 5 3 8 8 7 8 -3 98 48
125 70 9 8 17 11 17 7 0 -4 8 -1 18 7 23 20 125 77 133 75 4 -1 16 7 28 17 23
21 50 37 99 60 17 8 32 19 32 23 0 4 -75 8 -168 8 l-167 0 -75 -38z"/>
<path d="M6594 3301 c-2 -2 -4 -429 -4 -947 0 -907 -1 -944 -18 -953 -13 -7
-23 -6 -30 1 -7 7 -12 8 -12 3 0 -4 -9 0 -20 10 -11 10 -20 15 -20 11 0 -4
-12 2 -27 14 -16 12 -43 28 -60 35 -18 8 -33 19 -33 26 0 7 -3 9 -6 6 -4 -4
-19 2 -34 13 -16 11 -31 20 -35 20 -4 0 -20 9 -36 21 -16 11 -29 17 -29 12 0
-4 -6 -1 -13 7 -7 8 -30 24 -52 36 -92 48 -330 188 -333 196 -2 4 -12 8 -22 8
-10 0 -20 3 -22 8 -1 4 -23 18 -48 31 -25 14 -48 29 -51 33 -3 5 -12 10 -20
12 -8 1 -33 14 -56 29 -24 15 -69 41 -100 58 -32 17 -64 36 -70 41 -7 6 -13 7
-13 2 0 -5 -5 -1 -11 9 -5 9 -16 17 -23 17 -8 0 -19 7 -26 15 -7 9 -15 13 -18
11 -2 -3 -23 7 -46 23 -22 15 -48 31 -56 34 -8 4 -37 20 -65 37 -27 17 -58 33
-67 37 -10 3 -18 9 -18 14 0 5 -5 9 -11 9 -13 0 -152 81 -161 95 -4 5 -8 6 -8
2 0 -5 -13 1 -29 12 -15 11 -31 18 -35 14 -3 -3 -6 -2 -6 3 0 5 -17 18 -37 29
-21 11 -41 24 -45 29 -3 5 -14 11 -23 12 -9 1 -25 10 -36 20 -10 9 -19 14 -19
11 0 -6 -62 31 -87 53 -7 6 -13 9 -13 6 0 -3 -46 23 -102 56 -101 60 -131 77
-205 119 -21 12 -44 26 -50 31 -7 6 -13 7 -13 2 0 -5 -4 -4 -8 2 -4 6 -27 22
-52 36 -160 90 -266 153 -272 162 -4 6 -8 7 -8 2 0 -5 -7 -3 -15 4 -12 10 -24
7 -63 -19 -27 -17 -54 -31 -59 -31 -6 0 -14 -7 -17 -16 -3 -8 -9 -13 -14 -11
-4 3 -16 -1 -26 -9 -18 -13 -18 -14 5 -24 13 -6 42 -22 64 -35 22 -14 47 -28
55 -32 8 -3 27 -15 43 -25 15 -11 27 -16 27 -11 0 4 4 3 8 -3 9 -13 218 -134
232 -134 5 0 10 -4 10 -8 0 -5 18 -17 40 -27 22 -10 40 -22 40 -27 0 -5 4 -7
9 -4 5 4 11 3 13 -1 1 -5 28 -21 58 -37 30 -16 62 -35 71 -42 9 -8 19 -11 22
-7 4 3 7 2 7 -4 0 -6 8 -13 18 -16 9 -4 40 -20 67 -37 28 -17 60 -35 73 -40
12 -5 22 -15 22 -21 0 -7 3 -10 6 -6 3 3 29 -8 57 -25 29 -17 72 -42 97 -56
40 -22 94 -53 155 -89 11 -7 54 -31 95 -54 41 -23 86 -50 100 -60 14 -9 30
-18 35 -20 12 -3 84 -45 131 -76 19 -12 34 -20 34 -17 0 3 16 -7 35 -22 19
-14 35 -22 35 -18 0 5 4 5 8 -1 9 -12 61 -44 85 -52 9 -3 17 -9 17 -14 0 -5 9
-9 19 -9 11 0 21 -4 23 -8 3 -8 78 -53 218 -132 105 -59 115 -65 121 -73 3 -5
9 -8 13 -8 3 1 55 -27 114 -61 59 -35 124 -72 145 -83 20 -11 37 -23 37 -27 0
-5 7 -8 15 -8 8 0 15 -5 15 -11 0 -5 4 -8 8 -5 5 3 21 -4 38 -15 16 -11 45
-27 64 -36 19 -10 40 -24 47 -33 7 -8 13 -12 13 -8 0 4 46 -21 103 -54 56 -34
117 -69 135 -79 41 -24 93 -54 123 -71 13 -7 27 -17 31 -23 4 -5 8 -6 8 -1 0
5 6 4 13 -2 9 -8 12 215 10 1111 -1 617 -2 1124 -2 1127 -1 6 -171 7 -177 1z"/>
</g>
</svg>
