<?xml version="1.0" standalone="no"?>
<!DOCTYPE svg PUBLIC "-//W3C//DTD SVG 20010904//EN"
 "http://www.w3.org/TR/2001/REC-SVG-20010904/DTD/svg10.dtd">
<svg version="1.0" xmlns="http://www.w3.org/2000/svg"
 width="1009.000000pt" height="1009.000000pt" viewBox="0 0 1009.000000 1009.000000"
 preserveAspectRatio="xMidYMid meet">
<metadata>
Created by potrace 1.11, written by Peter Selinger 2001-2013
</metadata>
<g transform="translate(0.000000,1009.000000) scale(0.100000,-0.100000)"
fill="#000000" stroke="none">
<path d="M1355 10083 c-203 -24 -375 -76 -544 -163 -411 -213 -701 -605 -787
-1065 -18 -97 -19 -229 -19 -3810 0 -3581 1 -3713 19 -3810 115 -617 594
-1096 1211 -1211 97 -18 229 -19 3810 -19 3581 0 3713 1 3810 19 617 115 1096
594 1211 1211 18 97 19 229 19 3810 0 3581 -1 3713 -19 3810 -113 608 -567
1071 -1185 1208 l-96 21 -3700 2 c-2035 0 -3713 -1 -3730 -3z m1168 -3015 c4
-18 16 -67 27 -108 23 -84 24 -86 210 -780 73 -272 143 -535 157 -585 13 -49
32 -121 42 -160 11 -38 28 -104 39 -145 65 -235 82 -302 82 -316 0 -8 -25 -5
-77 10 l-78 22 -12 44 c-6 25 -69 257 -138 515 -70 259 -131 488 -136 510 -5
22 -16 60 -23 85 -8 25 -29 99 -46 165 -18 66 -38 126 -45 134 -21 22 -42 6
-53 -41 -6 -24 -16 -61 -22 -83 -6 -22 -16 -61 -22 -87 -6 -27 -14 -48 -17
-48 -4 0 -32 26 -64 58 l-57 57 16 50 c8 28 26 91 39 140 13 50 31 117 41 150
9 33 20 76 25 95 4 19 12 51 18 70 27 96 59 218 68 262 7 35 18 28 26 -14z
m5067 26 c0 -3 27 -107 61 -232 67 -253 90 -338 118 -444 11 -40 22 -80 25
-88 4 -10 -14 -36 -53 -74 -42 -42 -62 -55 -65 -45 -3 8 -19 65 -36 128 -35
128 -36 131 -55 131 -18 0 -33 -27 -52 -98 -8 -31 -19 -70 -23 -87 -5 -16 -20
-75 -34 -130 -30 -113 -62 -230 -107 -390 -17 -60 -35 -128 -39 -150 -5 -22
-21 -83 -35 -135 -41 -144 -42 -148 -70 -255 -25 -96 -33 -123 -52 -189 -9
-30 -15 -33 -98 -56 -16 -4 -38 -11 -49 -15 -16 -7 -18 -5 -14 21 3 16 18 72
32 124 15 52 31 111 36 130 16 67 87 332 126 470 14 52 30 111 34 130 5 19 24
94 44 165 59 221 66 247 92 345 14 52 36 133 48 180 13 47 45 164 70 260 26
96 54 197 62 224 8 26 14 57 14 67 0 11 5 19 10 19 6 0 10 -2 10 -6z m-5470
-697 c280 -280 510 -518 513 -530 22 -93 40 -158 53 -196 8 -24 13 -45 11 -47
-1 -2 -250 244 -552 546 -303 303 -557 550 -565 550 -20 0 -1100 -1081 -1100
-1101 0 -20 9 -24 125 -54 50 -13 117 -31 150 -40 63 -17 155 -42 280 -75 41
-11 108 -29 148 -39 39 -11 200 -54 357 -96 410 -109 393 -103 386 -134 -4
-14 -9 -43 -13 -64 -3 -21 -9 -40 -13 -42 -7 -4 -53 6 -215 50 -33 9 -103 28
-155 42 -52 14 -108 29 -125 33 -16 5 -73 20 -125 33 -52 14 -120 32 -150 40
-575 156 -853 231 -890 239 -25 6 -49 14 -55 19 -6 6 250 269 690 709 676 676
700 699 718 682 11 -9 248 -246 527 -525z m7091 -158 c385 -386 697 -705 692
-709 -4 -4 -30 -13 -58 -19 -50 -12 -133 -34 -190 -50 -16 -5 -48 -13 -70 -19
-22 -6 -78 -22 -125 -36 -47 -13 -96 -26 -110 -29 -14 -3 -86 -21 -160 -41
-129 -35 -288 -78 -485 -131 -49 -13 -106 -29 -125 -35 -19 -6 -55 -15 -80
-21 -58 -13 -94 -22 -210 -53 -97 -26 -109 -24 -110 15 0 9 -6 35 -14 57 l-15
41 42 10 c23 5 58 14 77 20 19 5 80 22 135 36 55 15 114 30 130 35 17 5 73 20
125 33 52 14 138 37 190 51 52 15 156 42 230 62 74 20 182 49 240 65 58 15
145 38 195 52 68 17 91 28 93 42 3 13 -151 173 -539 561 -299 299 -551 544
-559 544 -8 0 -264 -249 -569 -552 -304 -304 -550 -544 -546 -533 10 28 54
193 61 230 5 23 132 156 528 553 286 287 522 522 523 522 2 0 318 -316 704
-701z m-6918 -305 l37 -42 -16 -58 c-8 -33 -30 -115 -48 -184 -54 -201 -130
-486 -178 -660 -11 -41 -24 -91 -28 -110 -9 -37 -17 -65 -45 -165 -9 -33 -31
-116 -49 -185 -19 -69 -48 -179 -66 -245 -35 -131 -56 -207 -145 -540 -9 -33
-25 -93 -35 -133 -11 -40 -22 -77 -25 -81 -3 -5 -2 -17 1 -26 8 -20 45 -17
139 9 33 10 94 27 135 38 41 11 91 24 110 30 19 5 51 13 70 17 19 5 60 16 90
24 30 9 82 23 115 32 153 41 216 58 300 80 90 24 188 50 300 80 153 41 209 55
211 52 8 -7 35 -129 31 -134 -3 -3 -39 -14 -79 -24 -138 -37 -253 -67 -373
-98 -66 -17 -131 -35 -145 -40 -14 -5 -43 -13 -65 -19 -177 -47 -339 -90 -440
-117 -66 -18 -131 -35 -145 -38 -22 -5 -159 -42 -250 -68 -19 -6 -53 -15 -75
-20 -22 -5 -62 -15 -90 -23 -27 -7 -52 -12 -54 -10 -2 1 4 29 14 61 9 32 21
74 26 93 5 19 18 69 30 110 11 41 25 91 29 110 4 19 15 62 25 95 19 71 47 175
76 283 11 42 28 106 39 142 10 36 20 76 23 90 3 14 13 52 22 85 9 33 26 94 37
135 11 41 23 89 28 105 5 17 20 73 33 125 14 52 37 138 52 190 14 52 39 147
56 210 16 63 38 144 48 180 11 36 21 76 24 90 3 14 10 41 15 60 6 19 22 80 37
135 15 55 31 114 35 130 5 17 20 73 33 125 14 52 27 102 30 110 3 8 8 27 11
43 6 27 7 27 29 10 12 -9 39 -36 60 -59z m5618 -43 c11 -42 29 -107 39 -146
234 -877 293 -1098 305 -1140 8 -27 44 -162 80 -300 37 -137 73 -270 80 -295
29 -94 196 -733 192 -736 -1 -2 -43 8 -92 22 -50 14 -121 34 -160 44 -38 10
-105 28 -147 39 -43 12 -111 30 -150 40 -40 11 -108 29 -150 40 -78 21 -163
44 -300 80 -444 118 -712 191 -715 195 -5 5 23 125 30 133 4 4 32 -3 137 -31
30 -8 123 -33 205 -55 83 -22 303 -81 490 -131 473 -127 597 -160 616 -160 23
0 30 23 18 62 -6 18 -19 66 -30 106 -10 39 -28 105 -38 145 -11 39 -76 284
-146 542 -70 259 -135 502 -145 540 -10 39 -26 95 -34 125 -50 186 -101 377
-121 455 -7 28 -36 135 -65 239 l-51 189 58 59 c66 67 58 71 94 -61z m-835
-438 c-9 -32 -21 -75 -26 -95 -30 -117 -6 -89 -560 -643 l-527 -527 -74 22
c-41 12 -76 24 -79 26 -2 3 283 292 635 644 352 352 641 637 644 635 2 -3 -4
-31 -13 -62z m-3345 -668 c440 -439 547 -551 532 -556 -10 -4 -45 -14 -77 -24
l-59 -17 -528 528 -527 527 -32 120 c-17 66 -34 127 -37 136 -7 20 54 -40 728
-714z m-1446 330 c33 -9 128 -34 210 -56 83 -22 182 -48 220 -59 39 -10 104
-27 145 -39 137 -37 294 -79 395 -106 55 -14 114 -30 131 -36 27 -8 250 -209
233 -209 -4 0 -123 31 -265 69 -143 39 -320 86 -394 105 -74 19 -191 50 -260
69 -69 19 -197 53 -285 77 -274 72 -250 63 -248 101 3 57 24 110 42 104 9 -2
43 -11 76 -20z m5619 13 c2 -7 11 -37 20 -67 9 -30 14 -56 11 -59 -3 -3 -63
-21 -133 -39 -131 -35 -249 -66 -387 -103 -44 -12 -96 -26 -115 -30 -32 -8
-175 -47 -260 -71 -19 -6 -53 -14 -75 -19 -22 -5 -65 -17 -95 -25 -30 -9 -107
-29 -170 -46 -63 -16 -137 -36 -164 -44 -27 -8 -52 -15 -55 -15 -3 0 39 45 94
100 109 110 101 106 315 161 127 32 431 113 525 139 17 5 73 20 125 34 155 40
283 75 315 85 41 13 45 13 49 -1z m-4798 -444 l62 -18 27 -105 c15 -58 35
-137 46 -176 43 -164 61 -229 78 -297 11 -40 33 -125 51 -188 17 -63 44 -162
60 -220 15 -58 37 -141 49 -185 22 -80 44 -161 80 -297 11 -40 32 -118 46
-173 15 -55 35 -129 44 -165 111 -421 158 -580 170 -585 10 -4 192 171 548
527 l533 533 51 -54 51 -54 -628 -628 c-346 -346 -631 -625 -635 -621 -3 4
-32 104 -63 222 -31 118 -66 248 -76 288 -11 39 -29 105 -39 145 -11 39 -27
97 -35 127 -99 366 -231 861 -246 920 -10 41 -37 143 -60 225 -23 83 -50 183
-61 223 -10 39 -28 106 -39 147 -81 303 -110 416 -110 427 0 5 8 7 18 4 9 -2
45 -12 78 -22z m3972 -6 c-5 -22 -51 -196 -105 -393 -14 -49 -36 -133 -50
-185 -13 -52 -28 -108 -33 -125 -5 -16 -17 -64 -28 -105 -11 -41 -28 -102 -37
-135 -9 -33 -21 -78 -26 -100 -4 -22 -13 -56 -19 -75 -6 -19 -26 -93 -45 -165
-19 -71 -46 -173 -61 -225 -14 -52 -37 -138 -51 -190 -13 -52 -28 -108 -33
-125 -32 -116 -83 -307 -90 -340 -5 -22 -18 -69 -28 -105 -11 -36 -23 -76 -26
-90 -4 -14 -23 -86 -43 -160 -20 -74 -38 -147 -41 -163 -2 -15 -7 -27 -11 -27
-3 0 -457 451 -1009 1003 l-1002 1002 80 21 80 22 876 -875 c571 -571 881
-873 892 -871 16 3 32 45 52 133 5 22 13 56 19 75 10 34 63 234 101 375 35
134 62 230 82 300 11 39 24 88 28 110 5 22 21 83 35 135 15 52 36 129 47 170
23 89 30 116 53 195 9 33 21 76 25 95 4 19 16 62 25 95 25 88 35 126 45 165 4
19 16 62 25 95 9 33 29 110 45 170 16 61 40 148 53 195 l23 85 50 17 c27 9 62
17 78 17 24 1 28 -2 24 -21z m-2958 -54 c160 -44 240 -66 385 -104 39 -11 104
-28 145 -39 63 -17 253 -67 270 -71 10 -2 -77 -28 -213 -64 l-58 -15 -222 60
c-122 34 -237 65 -256 69 -25 6 -64 38 -135 109 -56 56 -96 101 -91 101 6 0
84 -21 175 -46z m1931 -58 c-74 -75 -112 -105 -135 -110 -17 -3 -74 -17 -126
-31 -52 -15 -135 -37 -185 -50 -49 -13 -126 -34 -170 -45 -44 -12 -96 -26
-115 -30 -19 -5 -78 -21 -130 -36 -52 -14 -111 -30 -130 -34 -19 -5 -78 -20
-130 -35 -52 -14 -147 -40 -210 -56 -63 -16 -144 -38 -180 -48 -36 -10 -110
-30 -165 -45 -55 -15 -113 -31 -130 -35 -40 -12 -221 -59 -265 -71 -19 -4 -53
-13 -75 -19 -22 -6 -101 -27 -175 -47 -74 -19 -157 -42 -185 -49 -89 -25 -86
-26 -102 35 -22 80 -21 83 12 91 29 6 242 62 360 94 33 9 94 26 135 37 41 11
89 24 105 28 17 5 73 20 125 33 52 14 122 33 155 42 71 19 189 51 265 71 30 8
98 26 150 40 52 14 113 30 135 36 22 6 60 17 85 24 25 7 74 21 110 29 36 9 79
20 95 25 28 8 136 37 300 80 39 10 97 26 130 35 33 9 76 21 95 25 61 15 103
26 175 48 107 32 248 70 265 71 8 1 -32 -46 -89 -103z m-425 -347 c104 -28
223 -59 264 -70 204 -54 341 -91 425 -114 33 -9 103 -28 155 -42 52 -13 116
-31 143 -38 58 -15 61 -18 48 -43 -6 -12 -11 -30 -11 -41 0 -35 -22 -72 -39
-66 -14 6 -71 21 -371 100 -87 23 -245 66 -335 90 -27 8 -93 25 -145 39 -52
14 -126 33 -165 44 -38 11 -124 34 -190 51 -197 53 -227 63 -218 70 4 4 40 16
78 25 86 21 167 43 171 45 1 1 86 -22 190 -50z m34 -221 c14 -5 26 -9 28 -9 7
3 52 -12 52 -18 0 -3 -124 -130 -275 -281 l-275 -275 -52 53 -53 52 250 250
c269 269 250 256 325 228z"/>
</g>
</svg>
